<svg
 xmlns="http://www.w3.org/2000/svg"
 viewBox="0 0 32 32"
 width="32"
 height="32"
 fill="black"
>
 <path fill-rule="evenodd" d="M27.5 12.5C27.5 16.366 24.366 19.5 20.5 19.5C16.634 19.5 13.5 16.366 13.5 12.5C13.5 8.63401 16.634 5.5 20.5 5.5C24.366 5.5 27.5 8.63401 27.5 12.5ZM29 12.5C29 17.1944 25.1944 21 20.5 21C18.883 21 17.3715 20.5485 16.0846 19.7647L6.65165 29.1976C6.35876 29.4905 5.88388 29.4905 5.59099 29.1976L3.46967 27.0763C3.17678 26.7834 3.17678 26.3085 3.46967 26.0156L12.9936 16.4917C12.3594 15.3015 12 13.9427 12 12.5C12 7.80558 15.8056 4 20.5 4C25.1944 4 29 7.80558 29 12.5ZM13.8332 17.7734L5.06066 26.5459L6.12132 27.6066L14.8645 18.8634C14.4897 18.5312 14.1444 18.1664 13.8332 17.7734Z"/>
</svg>
