<svg
 xmlns="http://www.w3.org/2000/svg"
 viewBox="0 0 32 32"
 width="32"
 height="32"
 fill="black"
>
 <path d="M8.71011 25.7934C8.47066 25.7934 8.23566 25.7037 8.05626 25.5369C2.68132 20.5293 -0.103442 15.0593 0.00293754 9.7185C0.0544592 7.12496 0.965541 4.93079 2.63722 3.3746C4.67696 1.47485 7.40464 0.912072 9.27759 1.01443C13.0924 1.22733 15.0384 3.40065 15.9635 5.00784C16.8883 3.40065 18.8343 1.22733 22.6491 1.01443C23.2459 0.98093 23.8015 1.00587 24.3001 1.08813C24.6429 1.14433 24.8998 1.4354 24.9146 1.78415C24.9268 2.07001 24.7741 2.33055 24.5332 2.46232C24.3475 2.60673 22.0909 4.45214 22.6795 7.08327C22.8578 7.88277 23.6555 8.48575 24.5276 9.08426C26.4725 10.4171 24.3838 14.0692 22.347 17.1012C19.4003 21.4877 17.9406 22.2098 17.0992 22.3717C16.6115 22.4655 16.1507 22.375 15.7664 22.1119L15.6118 22.0054C14.4728 21.2201 13.7188 20.7701 12.8426 21.1482C12.1224 21.459 11.4341 22.0445 10.7376 22.9371C10.5882 23.1381 9.79021 24.4244 9.6412 25.0557C9.56299 25.3858 9.3128 25.6531 8.98773 25.7521C8.89692 25.78 8.80314 25.7934 8.71011 25.7934ZM8.82798 2.47646C7.28195 2.47646 5.20997 2.98973 3.63577 4.45586C2.24358 5.75188 1.51523 7.53252 1.47112 9.74827C1.35399 15.6247 5.10136 20.6201 8.49661 23.9242C8.89358 23.0405 9.51184 22.1175 9.58004 22.0307C10.4322 20.9365 11.3099 20.2047 12.2629 19.7934C13.9453 19.0672 15.3301 20.0223 16.4432 20.7902L16.5948 20.8944C16.6237 20.9141 16.6771 20.9513 16.8235 20.9234C17.2323 20.8445 18.4707 20.2345 21.1298 16.2768C24.6474 11.0402 23.7096 10.3088 23.6996 10.3021C22.85 9.71887 21.5668 8.8386 21.2466 7.40635C20.7873 5.35251 21.5983 3.62919 22.4645 2.50549C18.2561 2.86616 16.9647 6.04295 16.6656 7.02521C16.5711 7.33488 16.286 7.54667 15.9632 7.54667C15.6403 7.54667 15.3557 7.33488 15.2611 7.02483C14.9565 6.02285 13.6173 2.73365 9.19641 2.48688C9.07743 2.48018 8.95437 2.47646 8.82798 2.47646ZM24.3627 2.52968C24.3627 2.53006 24.3627 2.53006 24.3627 2.53006V2.52968Z"/>
 <path d="M15.6127 31C15.2631 31 14.8799 30.9283 14.4785 30.7332C13.6835 30.3479 12.0394 29.3106 11.3718 28.6258C11.0885 28.3353 11.0941 27.8694 11.3833 27.5855C11.6728 27.3013 12.1372 27.3065 12.4204 27.597C12.9344 28.1242 14.4196 29.0702 15.1168 29.4079C15.4753 29.5822 15.8519 29.6156 16.5247 29.2147C19.5103 27.4335 22.3756 25.0962 24.8109 22.4552C27.4788 19.5609 30.637 14.9872 30.5304 9.63547C30.4911 7.67186 29.7946 4.90534 27.9606 3.5715C27.6325 3.33297 27.5596 2.87263 27.7969 2.54344C28.035 2.21462 28.4934 2.14143 28.8215 2.37959C31.0895 4.02887 31.9489 7.19406 31.9971 9.60612C32.1133 15.4483 28.7389 20.3616 25.8877 23.4543C23.3579 26.1982 20.3797 28.6273 17.2741 30.4798C17.0194 30.6322 16.4028 31 15.6127 31Z"/>
</svg>
