<svg
 xmlns="http://www.w3.org/2000/svg"
 viewBox="0 0 32 32"
 width="32"
 height="32"
 fill="black"
>
 <path d="M3.18653 24.488L4.12708 23.422C3.31424 22.1244 2.7082 20.6841 2.35515 19.1472L0.937622 19.0586C0.410587 19.0257 0 18.5886 0 18.0605V13.9395C0 13.4114 0.410587 12.9743 0.937622 12.9414L2.35515 12.8528C2.7082 11.3159 3.31424 9.87556 4.12708 8.578L3.18653 7.51205C2.83715 7.11609 2.85587 6.51672 3.22926 6.14332L6.14332 3.22926C6.51672 2.85587 7.11609 2.83715 7.51205 3.18653L8.578 4.12708C9.87556 3.31424 11.3159 2.7082 12.8528 2.35515L12.9414 0.937622C12.9743 0.410587 13.4114 0 13.9395 0H18.0605C18.5886 0 19.0257 0.410587 19.0586 0.937622L19.1472 2.35515C20.6841 2.7082 22.1244 3.31424 23.422 4.12708L24.488 3.18653C24.8839 2.83716 25.4833 2.85587 25.8567 3.22926L28.7707 6.14332C29.1441 6.51672 29.1628 7.11609 28.8135 7.51205L27.8729 8.578C28.6858 9.87556 29.2918 11.3159 29.6448 12.8528L31.0624 12.9414C31.5894 12.9743 32 13.4114 32 13.9395V18.0605C32 18.5886 31.5894 19.0257 31.0624 19.0586L29.6448 19.1472C29.2918 20.6841 28.6858 22.1244 27.8729 23.422L28.8135 24.488C29.1628 24.8839 29.1441 25.4833 28.7707 25.8567L25.8567 28.7707C25.4833 29.1441 24.8839 29.1628 24.488 28.8135L23.422 27.8729C22.1244 28.6858 20.6841 29.2918 19.1472 29.6448L19.0586 31.0624C19.0257 31.5894 18.5886 32 18.0605 32H13.9395C13.4114 32 12.9743 31.5894 12.9414 31.0624L12.8528 29.6448C11.3159 29.2918 9.87556 28.6858 8.578 27.8729L7.51205 28.8135C7.11609 29.1628 6.51672 29.1441 6.14332 28.7707L3.22926 25.8567C2.85587 25.4833 2.83715 24.8839 3.18653 24.488ZM16 28C22.6274 28 28 22.6274 28 16C28 9.37258 22.6274 4 16 4C9.37258 4 4 9.37258 4 16C4 22.6274 9.37258 28 16 28Z"/>
 <path d="M11 11C13 10 15.3333 11.1667 16 12C16.6667 11.1667 19.017 10 21.017 11C23.017 11.9999 24.017 15 21.517 18C19.017 21 16.6837 22 16.017 22L16 22C15.3333 22 13 21 10.5 18C8 15 9 12 11 11Z"/>
</svg>
